<mxfile host="Electron" agent="Mozilla/5.0 (Windows NT 10.0; Win64; x64) AppleWebKit/537.36 (KHTML, like Gecko) draw.io/28.1.2 Chrome/138.0.7204.243 Electron/37.4.0 Safari/537.36" version="28.1.2">
  <diagram name="Page-1" id="Ako4uhVHVNq5wq-JT_mI">
    <mxGraphModel dx="2564" dy="2212" grid="1" gridSize="10" guides="1" tooltips="1" connect="1" arrows="1" fold="1" page="1" pageScale="1" pageWidth="827" pageHeight="1169" math="0" shadow="0">
      <root>
        <mxCell id="0" />
        <mxCell id="1" parent="0" />
        <mxCell id="ptakEEL_nIZvV7rMis_r-1" value="&lt;b&gt;&lt;font style=&quot;font-size: 30px;&quot;&gt;Integration Model&lt;/font&gt;&lt;/b&gt;" style="text;html=1;align=center;verticalAlign=middle;whiteSpace=wrap;rounded=0;" parent="1" vertex="1">
          <mxGeometry x="-600" y="-110" width="330" height="30" as="geometry" />
        </mxCell>
        <mxCell id="ptakEEL_nIZvV7rMis_r-2" value="&lt;font style=&quot;font-size: 20px;&quot;&gt;(how tables are related)&lt;/font&gt;" style="text;html=1;align=center;verticalAlign=middle;whiteSpace=wrap;rounded=0;" parent="1" vertex="1">
          <mxGeometry x="-310" y="-105" width="240" height="20" as="geometry" />
        </mxCell>
        <mxCell id="ptakEEL_nIZvV7rMis_r-3" value="crm_cust_info" style="swimlane;fontStyle=0;childLayout=stackLayout;horizontal=1;startSize=30;horizontalStack=0;resizeParent=1;resizeParentMax=0;resizeLast=0;collapsible=1;marginBottom=0;whiteSpace=wrap;html=1;rounded=1;fillColor=#dae8fc;strokeColor=#6c8ebf;fontSize=26;" parent="1" vertex="1">
          <mxGeometry y="360" width="260" height="140" as="geometry" />
        </mxCell>
        <mxCell id="ptakEEL_nIZvV7rMis_r-4" value="cst_id" style="text;strokeColor=none;fillColor=none;align=left;verticalAlign=middle;spacingLeft=4;spacingRight=4;overflow=hidden;points=[[0,0.5],[1,0.5]];portConstraint=eastwest;rotatable=0;whiteSpace=wrap;html=1;fontSize=26;" parent="ptakEEL_nIZvV7rMis_r-3" vertex="1">
          <mxGeometry y="30" width="260" height="40" as="geometry" />
        </mxCell>
        <mxCell id="ptakEEL_nIZvV7rMis_r-20" value="cst_key" style="text;strokeColor=none;fillColor=none;align=left;verticalAlign=middle;spacingLeft=4;spacingRight=4;overflow=hidden;points=[[0,0.5],[1,0.5]];portConstraint=eastwest;rotatable=0;whiteSpace=wrap;html=1;fontSize=26;" parent="ptakEEL_nIZvV7rMis_r-3" vertex="1">
          <mxGeometry y="70" width="260" height="40" as="geometry" />
        </mxCell>
        <mxCell id="MNAQQw48SjATVV3dbEpY-4" value="&lt;span style=&quot;font-size: 20px;&quot;&gt;&lt;b&gt;CUSTOMERS&lt;/b&gt;&lt;/span&gt;" style="text;html=1;strokeColor=#006EAF;fillColor=#1ba1e2;align=center;verticalAlign=middle;whiteSpace=wrap;overflow=hidden;rounded=1;fontColor=#ffffff;" vertex="1" parent="ptakEEL_nIZvV7rMis_r-3">
          <mxGeometry y="110" width="260" height="30" as="geometry" />
        </mxCell>
        <mxCell id="ptakEEL_nIZvV7rMis_r-7" value="&lt;font style=&quot;font-size: 18px;&quot;&gt;Customer Information&lt;/font&gt;" style="text;html=1;align=center;verticalAlign=middle;whiteSpace=wrap;rounded=0;" parent="1" vertex="1">
          <mxGeometry y="340" width="250" height="20" as="geometry" />
        </mxCell>
        <mxCell id="ptakEEL_nIZvV7rMis_r-8" value="crm_prd_info" style="swimlane;fontStyle=0;childLayout=stackLayout;horizontal=1;startSize=30;horizontalStack=0;resizeParent=1;resizeParentMax=0;resizeLast=0;collapsible=1;marginBottom=0;whiteSpace=wrap;html=1;rounded=1;fillColor=#dae8fc;strokeColor=#6c8ebf;fontSize=26;" parent="1" vertex="1">
          <mxGeometry y="180" width="270" height="100" as="geometry" />
        </mxCell>
        <mxCell id="ptakEEL_nIZvV7rMis_r-9" value="prd_key" style="text;strokeColor=none;fillColor=none;align=left;verticalAlign=middle;spacingLeft=4;spacingRight=4;overflow=hidden;points=[[0,0.5],[1,0.5]];portConstraint=eastwest;rotatable=0;whiteSpace=wrap;html=1;fontSize=26;" parent="ptakEEL_nIZvV7rMis_r-8" vertex="1">
          <mxGeometry y="30" width="270" height="40" as="geometry" />
        </mxCell>
        <mxCell id="MNAQQw48SjATVV3dbEpY-1" value="&lt;span style=&quot;font-size: 20px;&quot;&gt;&lt;b&gt;PRODUCTS&lt;/b&gt;&lt;/span&gt;" style="text;html=1;strokeColor=#3700CC;fillColor=#6a00ff;align=center;verticalAlign=middle;whiteSpace=wrap;overflow=hidden;rounded=1;fontColor=#ffffff;" vertex="1" parent="ptakEEL_nIZvV7rMis_r-8">
          <mxGeometry y="70" width="270" height="30" as="geometry" />
        </mxCell>
        <mxCell id="ptakEEL_nIZvV7rMis_r-10" value="&lt;font style=&quot;font-size: 18px;&quot;&gt;current &amp;amp; history product information&lt;/font&gt;" style="text;html=1;align=center;verticalAlign=middle;whiteSpace=wrap;rounded=0;" parent="1" vertex="1">
          <mxGeometry x="20" y="150" width="230" height="20" as="geometry" />
        </mxCell>
        <mxCell id="ptakEEL_nIZvV7rMis_r-11" value="crm_sales_details" style="swimlane;fontStyle=0;childLayout=stackLayout;horizontal=1;startSize=30;horizontalStack=0;resizeParent=1;resizeParentMax=0;resizeLast=0;collapsible=1;marginBottom=0;whiteSpace=wrap;html=1;rounded=1;fillColor=#dae8fc;strokeColor=#6c8ebf;fontSize=26;" parent="1" vertex="1">
          <mxGeometry x="-450" y="240" width="270" height="140" as="geometry" />
        </mxCell>
        <mxCell id="ptakEEL_nIZvV7rMis_r-12" value="prd_key" style="text;strokeColor=none;fillColor=none;align=left;verticalAlign=middle;spacingLeft=4;spacingRight=4;overflow=hidden;points=[[0,0.5],[1,0.5]];portConstraint=eastwest;rotatable=0;whiteSpace=wrap;html=1;fontSize=26;" parent="ptakEEL_nIZvV7rMis_r-11" vertex="1">
          <mxGeometry y="30" width="270" height="40" as="geometry" />
        </mxCell>
        <mxCell id="ptakEEL_nIZvV7rMis_r-14" value="cst_id" style="text;strokeColor=none;fillColor=none;align=left;verticalAlign=middle;spacingLeft=4;spacingRight=4;overflow=hidden;points=[[0,0.5],[1,0.5]];portConstraint=eastwest;rotatable=0;whiteSpace=wrap;html=1;fontSize=26;" parent="ptakEEL_nIZvV7rMis_r-11" vertex="1">
          <mxGeometry y="70" width="270" height="40" as="geometry" />
        </mxCell>
        <mxCell id="MNAQQw48SjATVV3dbEpY-6" value="&lt;span style=&quot;font-size: 20px;&quot;&gt;&lt;b&gt;SALES&lt;/b&gt;&lt;/span&gt;" style="text;html=1;strokeColor=#2D7600;fillColor=#60a917;align=center;verticalAlign=middle;whiteSpace=wrap;overflow=hidden;rounded=1;fontColor=#ffffff;" vertex="1" parent="ptakEEL_nIZvV7rMis_r-11">
          <mxGeometry y="110" width="270" height="30" as="geometry" />
        </mxCell>
        <mxCell id="ptakEEL_nIZvV7rMis_r-13" value="&lt;font style=&quot;font-size: 18px;&quot;&gt;Transactional Records about Sales &amp;amp; Orders&lt;/font&gt;" style="text;html=1;align=center;verticalAlign=middle;whiteSpace=wrap;rounded=0;" parent="1" vertex="1">
          <mxGeometry x="-450" y="210" width="250" height="20" as="geometry" />
        </mxCell>
        <mxCell id="ptakEEL_nIZvV7rMis_r-17" value="erp_cust_az12" style="swimlane;fontStyle=0;childLayout=stackLayout;horizontal=1;startSize=30;horizontalStack=0;resizeParent=1;resizeParentMax=0;resizeLast=0;collapsible=1;marginBottom=0;whiteSpace=wrap;html=1;rounded=1;fillColor=#ffe6cc;strokeColor=#d79b00;fontSize=26;" parent="1" vertex="1">
          <mxGeometry x="505" y="290" width="270" height="100" as="geometry" />
        </mxCell>
        <mxCell id="ptakEEL_nIZvV7rMis_r-18" value="cid" style="text;align=left;verticalAlign=middle;spacingLeft=4;spacingRight=4;overflow=hidden;points=[[0,0.5],[1,0.5]];portConstraint=eastwest;rotatable=0;whiteSpace=wrap;html=1;fontSize=26;" parent="ptakEEL_nIZvV7rMis_r-17" vertex="1">
          <mxGeometry y="30" width="270" height="40" as="geometry" />
        </mxCell>
        <mxCell id="MNAQQw48SjATVV3dbEpY-3" value="&lt;span style=&quot;font-size: 20px;&quot;&gt;&lt;b&gt;CUSTOMER&lt;/b&gt;&lt;/span&gt;" style="text;html=1;strokeColor=#006EAF;fillColor=#1ba1e2;align=center;verticalAlign=middle;whiteSpace=wrap;overflow=hidden;rounded=1;fontColor=#ffffff;" vertex="1" parent="ptakEEL_nIZvV7rMis_r-17">
          <mxGeometry y="70" width="270" height="30" as="geometry" />
        </mxCell>
        <mxCell id="ptakEEL_nIZvV7rMis_r-19" value="&lt;span style=&quot;font-size: 18px;&quot;&gt;Extra Customer information (Birth date)&lt;/span&gt;" style="text;html=1;align=center;verticalAlign=middle;whiteSpace=wrap;rounded=0;" parent="1" vertex="1">
          <mxGeometry x="485" y="270" width="320" height="20" as="geometry" />
        </mxCell>
        <mxCell id="ptakEEL_nIZvV7rMis_r-21" style="edgeStyle=orthogonalEdgeStyle;rounded=0;orthogonalLoop=1;jettySize=auto;html=1;exitX=1;exitY=0.5;exitDx=0;exitDy=0;entryX=-0.001;entryY=0.21;entryDx=0;entryDy=0;entryPerimeter=0;" parent="1" source="ptakEEL_nIZvV7rMis_r-12" target="ptakEEL_nIZvV7rMis_r-9" edge="1">
          <mxGeometry relative="1" as="geometry" />
        </mxCell>
        <mxCell id="ptakEEL_nIZvV7rMis_r-22" style="edgeStyle=orthogonalEdgeStyle;rounded=0;orthogonalLoop=1;jettySize=auto;html=1;exitX=1;exitY=0.5;exitDx=0;exitDy=0;entryX=0;entryY=0.5;entryDx=0;entryDy=0;" parent="1" source="ptakEEL_nIZvV7rMis_r-14" target="ptakEEL_nIZvV7rMis_r-4" edge="1">
          <mxGeometry relative="1" as="geometry" />
        </mxCell>
        <mxCell id="ptakEEL_nIZvV7rMis_r-23" style="edgeStyle=orthogonalEdgeStyle;rounded=0;orthogonalLoop=1;jettySize=auto;html=1;exitX=0;exitY=0.5;exitDx=0;exitDy=0;entryX=1;entryY=0.5;entryDx=0;entryDy=0;" parent="1" source="ptakEEL_nIZvV7rMis_r-18" target="ptakEEL_nIZvV7rMis_r-4" edge="1">
          <mxGeometry relative="1" as="geometry" />
        </mxCell>
        <mxCell id="ptakEEL_nIZvV7rMis_r-24" value="erp_loc_a101" style="swimlane;fontStyle=0;childLayout=stackLayout;horizontal=1;startSize=30;horizontalStack=0;resizeParent=1;resizeParentMax=0;resizeLast=0;collapsible=1;marginBottom=0;whiteSpace=wrap;html=1;rounded=1;fillColor=#ffe6cc;strokeColor=#d79b00;fontSize=26;movable=0;resizable=0;rotatable=0;deletable=0;editable=0;locked=1;connectable=0;" parent="1" vertex="1">
          <mxGeometry x="505" y="440" width="270" height="100" as="geometry" />
        </mxCell>
        <mxCell id="ptakEEL_nIZvV7rMis_r-25" value="cid" style="text;align=left;verticalAlign=middle;spacingLeft=4;spacingRight=4;overflow=hidden;points=[[0,0.5],[1,0.5]];portConstraint=eastwest;rotatable=0;whiteSpace=wrap;html=1;fontSize=26;movable=0;resizable=0;deletable=0;editable=0;locked=1;connectable=0;" parent="ptakEEL_nIZvV7rMis_r-24" vertex="1">
          <mxGeometry y="30" width="270" height="40" as="geometry" />
        </mxCell>
        <mxCell id="MNAQQw48SjATVV3dbEpY-5" value="&lt;span style=&quot;font-size: 20px;&quot;&gt;&lt;b&gt;CUSTOMER&lt;/b&gt;&lt;/span&gt;" style="text;html=1;strokeColor=#006EAF;fillColor=#1ba1e2;align=center;verticalAlign=middle;whiteSpace=wrap;overflow=hidden;rounded=1;fontColor=#ffffff;movable=0;resizable=0;rotatable=0;deletable=0;editable=0;locked=1;connectable=0;" vertex="1" parent="ptakEEL_nIZvV7rMis_r-24">
          <mxGeometry y="70" width="270" height="30" as="geometry" />
        </mxCell>
        <mxCell id="ptakEEL_nIZvV7rMis_r-26" value="&lt;span style=&quot;font-size: 18px;&quot;&gt;Location of Customers (Country)&lt;/span&gt;" style="text;html=1;align=center;verticalAlign=middle;whiteSpace=wrap;rounded=0;movable=0;resizable=0;rotatable=0;deletable=0;editable=0;locked=1;connectable=0;" parent="1" vertex="1">
          <mxGeometry x="505" y="420" width="280" height="20" as="geometry" />
        </mxCell>
        <mxCell id="ptakEEL_nIZvV7rMis_r-27" style="edgeStyle=orthogonalEdgeStyle;rounded=0;orthogonalLoop=1;jettySize=auto;html=1;exitX=0;exitY=0.5;exitDx=0;exitDy=0;entryX=1;entryY=0.5;entryDx=0;entryDy=0;" parent="1" source="ptakEEL_nIZvV7rMis_r-25" target="ptakEEL_nIZvV7rMis_r-4" edge="1">
          <mxGeometry relative="1" as="geometry" />
        </mxCell>
        <mxCell id="ptakEEL_nIZvV7rMis_r-28" value="&lt;div&gt;erp_px_cat_g1v2&lt;/div&gt;" style="swimlane;fontStyle=0;childLayout=stackLayout;horizontal=1;startSize=30;horizontalStack=0;resizeParent=1;resizeParentMax=0;resizeLast=0;collapsible=1;marginBottom=0;whiteSpace=wrap;html=1;rounded=1;fillColor=#ffe6cc;strokeColor=#d79b00;fontSize=26;" parent="1" vertex="1">
          <mxGeometry x="490" y="150" width="270" height="100" as="geometry" />
        </mxCell>
        <mxCell id="ptakEEL_nIZvV7rMis_r-29" value="id" style="text;align=left;verticalAlign=middle;spacingLeft=4;spacingRight=4;overflow=hidden;points=[[0,0.5],[1,0.5]];portConstraint=eastwest;rotatable=0;whiteSpace=wrap;html=1;fontSize=26;" parent="ptakEEL_nIZvV7rMis_r-28" vertex="1">
          <mxGeometry y="30" width="270" height="40" as="geometry" />
        </mxCell>
        <mxCell id="MNAQQw48SjATVV3dbEpY-2" value="&lt;span style=&quot;font-size: 20px;&quot;&gt;&lt;b&gt;PRODUCTS&lt;/b&gt;&lt;/span&gt;" style="text;html=1;strokeColor=#3700CC;fillColor=#6a00ff;align=center;verticalAlign=middle;whiteSpace=wrap;overflow=hidden;rounded=1;fontColor=#ffffff;" vertex="1" parent="ptakEEL_nIZvV7rMis_r-28">
          <mxGeometry y="70" width="270" height="30" as="geometry" />
        </mxCell>
        <mxCell id="ptakEEL_nIZvV7rMis_r-30" value="&lt;span style=&quot;font-size: 18px;&quot;&gt;Extra Product Information (Category)&lt;/span&gt;" style="text;html=1;align=center;verticalAlign=middle;whiteSpace=wrap;rounded=0;" parent="1" vertex="1">
          <mxGeometry x="465" y="130" width="320" height="20" as="geometry" />
        </mxCell>
        <mxCell id="ptakEEL_nIZvV7rMis_r-31" style="edgeStyle=orthogonalEdgeStyle;rounded=0;orthogonalLoop=1;jettySize=auto;html=1;exitX=0;exitY=0.5;exitDx=0;exitDy=0;entryX=1;entryY=0.5;entryDx=0;entryDy=0;" parent="1" source="ptakEEL_nIZvV7rMis_r-29" target="ptakEEL_nIZvV7rMis_r-9" edge="1">
          <mxGeometry relative="1" as="geometry" />
        </mxCell>
        <mxCell id="ptakEEL_nIZvV7rMis_r-32" value="" style="rounded=1;whiteSpace=wrap;html=1;arcSize=6;fillColor=none;dashed=1;" parent="1" vertex="1">
          <mxGeometry x="-460" y="80" width="750" height="480" as="geometry" />
        </mxCell>
        <mxCell id="ptakEEL_nIZvV7rMis_r-33" value="&lt;font style=&quot;font-size: 35px;&quot;&gt;CRM&lt;/font&gt;" style="rounded=1;whiteSpace=wrap;html=1;fillColor=#dae8fc;strokeColor=#6c8ebf;" parent="1" vertex="1">
          <mxGeometry x="-240" y="60" width="180" height="40" as="geometry" />
        </mxCell>
        <mxCell id="ptakEEL_nIZvV7rMis_r-35" value="" style="rounded=1;whiteSpace=wrap;html=1;arcSize=6;fillColor=none;dashed=1;" parent="1" vertex="1">
          <mxGeometry x="350" y="80" width="550" height="480" as="geometry" />
        </mxCell>
        <mxCell id="ptakEEL_nIZvV7rMis_r-36" value="&lt;span style=&quot;font-size: 35px;&quot;&gt;ERP&lt;/span&gt;" style="rounded=1;whiteSpace=wrap;html=1;fillColor=#ffe6cc;strokeColor=#d79b00;" parent="1" vertex="1">
          <mxGeometry x="520" y="60" width="180" height="40" as="geometry" />
        </mxCell>
      </root>
    </mxGraphModel>
  </diagram>
</mxfile>
